<svg xmlns="http://www.w3.org/2000/svg" xmlns:xlink="http://www.w3.org/1999/xlink" width="149.809" height="151.809" viewBox="0 0 149.809 151.809">
  <defs>
    <filter id="Rectangle_1" x="0" y="0" width="149.809" height="151.809" filterUnits="userSpaceOnUse">
      <feOffset dy="3" input="SourceAlpha"/>
      <feGaussianBlur stdDeviation="3" result="blur"/>
      <feFlood flood-opacity="0.161"/>
      <feComposite operator="in" in2="blur"/>
      <feComposite in="SourceGraphic"/>
    </filter>
  </defs>
  <g id="Group_189" data-name="Group 189" transform="translate(-466 -1665)">
    <g transform="matrix(1, 0, 0, 1, 466, 1665)" filter="url(#Rectangle_1)">
      <rect id="Rectangle_1-2" data-name="Rectangle 1" width="131.809" height="133.809" rx="65.904" transform="translate(9 6)" fill="#d2e4e3"/>
    </g>
    <path id="a46f951e7d8e65e551ff0dd37038f62f" d="M110.753,45.475a6.932,6.932,0,0,0-9.032.225l-8.173,7.446a6.51,6.51,0,0,0-5.167-2.527H79.569a8.975,8.975,0,0,1-3.131-.552c-2.512-.934-7.476-2.187-12.482-.123-2.391.987-3.325,2.324-11.364,8.881a3.674,3.674,0,0,0-4.348.619l-3.938,3.938a3.68,3.68,0,0,0,0,5.206L57.453,81.735a3.687,3.687,0,0,0,5.2,0L66.6,77.8a3.686,3.686,0,0,0,0-5.2l-.008-.008.831-.831a8.437,8.437,0,0,1,6.489-2.517,62.017,62.017,0,0,0,17.572-1.389,11.1,11.1,0,0,0,5.443-3l14.084-14.084A3.578,3.578,0,0,0,110.753,45.475ZM64.767,75.966,60.828,79.9a1.1,1.1,0,0,1-1.545,0L46.136,66.758a1.093,1.093,0,0,1,0-1.545l3.938-3.939a1.1,1.1,0,0,1,1.547,0C65.527,75.218,63.886,73.541,64.766,74.421A1.093,1.093,0,0,1,64.767,75.966Zm44.411-27.031L95.094,63.019a8.531,8.531,0,0,1-4.176,2.3,59.443,59.443,0,0,1-16.839,1.331,11.011,11.011,0,0,0-8.488,3.27l-.832.831L54.6,60.521c7.93-6.5,8.519-7.428,10.345-8.184a14.815,14.815,0,0,1,10.594.157,11.552,11.552,0,0,0,4.031.714H88.38a3.937,3.937,0,0,1,3.945,3.965,1.1,1.1,0,0,1-1.106,1.075H71.414a1.294,1.294,0,1,0,0,2.588H91.22a3.692,3.692,0,0,0,3.694-3.646,6.545,6.545,0,0,0-.19-1.614l8.741-7.963a4.329,4.329,0,0,1,5.643-.14A.987.987,0,0,1,109.178,48.935ZM92.748,35.089a15.76,15.76,0,1,0-14.767,0,3.375,3.375,0,0,1,1.863,2.944v0a2.221,2.221,0,0,0-1.672,2.145v4.538A3.387,3.387,0,0,0,81.554,48.1h7.62a3.387,3.387,0,0,0,3.383-3.383V40.182a2.22,2.22,0,0,0-1.67-2.145v0A3.372,3.372,0,0,1,92.748,35.089ZM79.194,32.8a13.172,13.172,0,1,1,12.34,0A5.956,5.956,0,0,0,88.3,37.959H82.426A5.956,5.956,0,0,0,79.194,32.8ZM89.968,44.72a.8.8,0,0,1-.795.795h-7.62a.8.8,0,0,1-.795-.795V40.547h9.209V44.72ZM84.07,3.068V1.294a1.294,1.294,0,0,1,2.588,0V3.068a1.294,1.294,0,0,1-2.588,0Zm-10,1.6a1.294,1.294,0,1,1,2.242-1.294L77.2,4.909A1.294,1.294,0,1,1,74.959,6.2Zm-7.445,6.151a1.3,1.3,0,0,1,1.768-.474l1.537.887a1.294,1.294,0,0,1-1.294,2.242L67.1,12.586A1.294,1.294,0,0,1,66.627,10.818Zm33.7,19.455a1.293,1.293,0,0,1,1.768-.474l1.537.887a1.294,1.294,0,0,1-1.294,2.242L100.8,32.04A1.294,1.294,0,0,1,100.324,30.273Zm-36.6-8.637a1.293,1.293,0,0,1,1.294-1.294H66.8a1.294,1.294,0,1,1,0,2.588H65.022A1.293,1.293,0,0,1,63.728,21.636Zm40.2-1.294h1.774a1.294,1.294,0,1,1,0,2.588h-1.774a1.294,1.294,0,0,1,0-2.588ZM70.405,30.273a1.294,1.294,0,0,1-.474,1.768l-1.537.887A1.294,1.294,0,1,1,67.1,30.686l1.537-.887A1.293,1.293,0,0,1,70.405,30.273ZM100.324,13a1.294,1.294,0,0,1,.474-1.768l1.537-.887a1.294,1.294,0,0,1,1.294,2.242l-1.537.887A1.3,1.3,0,0,1,100.324,13Zm-6.8-8.09.887-1.537a1.294,1.294,0,1,1,2.242,1.294L95.768,6.2a1.294,1.294,0,1,1-2.242-1.294Z" transform="translate(462.772 1696)" fill="#011936"/>
  </g>
</svg>
