<svg xmlns="http://www.w3.org/2000/svg" xmlns:xlink="http://www.w3.org/1999/xlink" width="149.809" height="151.809" viewBox="0 0 149.809 151.809">
  <defs>
    <filter id="Rectangle_1" x="0" y="0" width="149.809" height="151.809" filterUnits="userSpaceOnUse">
      <feOffset dy="3" input="SourceAlpha"/>
      <feGaussianBlur stdDeviation="3" result="blur"/>
      <feFlood flood-opacity="0.161"/>
      <feComposite operator="in" in2="blur"/>
      <feComposite in="SourceGraphic"/>
    </filter>
  </defs>
  <g id="Group_174" data-name="Group 174" transform="translate(-841 -1179)">
    <g transform="matrix(1, 0, 0, 1, 841, 1179)" filter="url(#Rectangle_1)">
      <rect id="Rectangle_1-2" data-name="Rectangle 1" width="131.809" height="133.809" rx="65.904" transform="translate(9 6)" fill="#d2e4e3"/>
    </g>
    <g id="_610b81a4e479dad4cb930c7daabd2427" data-name="610b81a4e479dad4cb930c7daabd2427" transform="translate(865.823 1202.403)">
      <path id="Path_427" data-name="Path 427" d="M50.2,3.6A46.022,46.022,0,1,0,96.221,49.62,46.075,46.075,0,0,0,50.2,3.6Zm0,90.044A44.022,44.022,0,1,1,94.222,49.62,44.071,44.071,0,0,1,50.2,93.641Z" fill="#011936"/>
      <path id="Path_428" data-name="Path 428" d="M54.042,65.994a7.155,7.155,0,0,1,1.833-1.48,5.45,5.45,0,0,1,2.211-.684,4.092,4.092,0,0,1,2.23.4A2.9,2.9,0,0,1,61.658,65.9a1,1,0,1,0,1.921-.557,4.886,4.886,0,0,0-2.341-2.893,6.092,6.092,0,0,0-3.309-.619,7.467,7.467,0,0,0-3.029.932,9.118,9.118,0,0,0-2.349,1.893,1,1,0,0,0,1.491,1.334Zm-5.65,3.619a13.429,13.429,0,0,0,7.462,2.074,20.215,20.215,0,0,0,3.9-.506,15.265,15.265,0,0,0,3.7-1.3,1,1,0,1,0,0-2,1.892,1.892,0,0,0-.927.243,13.666,13.666,0,0,1-3.232,1.108,17.376,17.376,0,0,1-2.616.4c-.345.028-.62.043-.866.049a11.414,11.414,0,0,1-6.348-1.764,2.084,2.084,0,0,0-1.11-.321.988.988,0,0,0-.98,1,1.02,1.02,0,0,0,1.018,1.006Z" fill="#011936"/>
      <path id="Path_429" data-name="Path 429" d="M67.222,28.848A31.256,31.256,0,0,0,59.567,24.4a28.278,28.278,0,0,1-5.09-2.73,28.486,28.486,0,0,1-4.839-5.04c-.078-.115-.16-.242-.241-.369-.437-.682-1.035-1.617-1.964-1.123a1.115,1.115,0,0,0-.51,1.247,6.33,6.33,0,0,1-1.581,5.012c-1.667,2.159-4.771,3.433-6.439,4.118q-.507.2-1,.435a27.062,27.062,0,1,0,29.317,2.9Zm7.9,24.805a8.04,8.04,0,0,0-1.065-3.529A4.1,4.1,0,0,0,71.4,48.008c-1.814-.365-3.524.89-4.655,1.721l-.138.1c-.189.138-.413.306-.665.495-1.614,1.212-4.972,3.735-6.707,3.735-.556,0-1.949-.937-3.179-1.764-2.876-1.934-6.814-4.583-11.553-4.583-7.366,0-10.04,5.5-10.037,9.121a8.124,8.124,0,0,0,1.969,5.632,8.585,8.585,0,0,0,6.521,2.478h.14c4.81,0,8.321-2.394,11.147-4.321,2.018-1.376,3.76-2.564,5.416-2.564,1.205,0,3.717,2.549,4.924,3.774.427.433.8.811,1.092,1.079,1.043.956,2.2,1.82,3.653,1.656a3.728,3.728,0,0,0,2.02-.952,25.055,25.055,0,1,1-32.56-35.877l.049-.023c.173-.09.46-.2.824-.354,1.841-.756,5.268-2.162,7.263-4.746A9.7,9.7,0,0,0,48.793,18.8a28.893,28.893,0,0,0,4.483,4.465,29.573,29.573,0,0,0,5.459,2.949,29.334,29.334,0,0,1,7.142,4.111q.039.037.08.071A24.947,24.947,0,0,1,75.39,49.985a25.207,25.207,0,0,1-.268,3.668Zm-4.054,7.261c-.711,1.026-1.389,1.6-1.962,1.667-.653.071-1.383-.506-2.079-1.143-.272-.25-.62-.6-1.018-1.008-2.27-2.3-4.464-4.371-6.349-4.371-2.272,0-4.346,1.414-6.542,2.912-2.76,1.881-5.87,4-10.142,3.973a6.7,6.7,0,0,1-5.056-1.819,6.2,6.2,0,0,1-1.455-4.22c0-2.488,1.68-7.193,8.04-7.193,4.128,0,7.775,2.452,10.437,4.243,1.817,1.222,3.129,2.1,4.3,2.1,2.217,0,5.245-2.135,7.909-4.136.244-.183.46-.346.644-.48l.141-.1c.9-.66,2.125-1.57,3.076-1.373a2.23,2.23,0,0,1,1.335,1.182c1.649,2.765.575,7.1-1.274,9.765Z" fill="#011936"/>
    </g>
  </g>
</svg>
