<svg xmlns="http://www.w3.org/2000/svg" xmlns:xlink="http://www.w3.org/1999/xlink" width="149.809" height="151.809" viewBox="0 0 149.809 151.809">
  <defs>
    <filter id="Rectangle_1" x="0" y="0" width="149.809" height="151.809" filterUnits="userSpaceOnUse">
      <feOffset dy="3" input="SourceAlpha"/>
      <feGaussianBlur stdDeviation="3" result="blur"/>
      <feFlood flood-opacity="0.161"/>
      <feComposite operator="in" in2="blur"/>
      <feComposite in="SourceGraphic"/>
    </filter>
  </defs>
  <g id="Group_179" data-name="Group 179" transform="translate(-841 -1646)">
    <g transform="matrix(1, 0, 0, 1, 841, 1646)" filter="url(#Rectangle_1)">
      <rect id="Rectangle_1-2" data-name="Rectangle 1" width="131.809" height="133.809" rx="65.904" transform="translate(9 6)" fill="#d2e4e3"/>
    </g>
    <path id="_9664deab4ad78a7fd2081c8637b3176a" data-name="9664deab4ad78a7fd2081c8637b3176a" d="M59.185,40.168V21.536a4.563,4.563,0,0,0-4.563-4.563h-7.66a22.59,22.59,0,0,0-1.841-3.44l1.148-1.148a1.141,1.141,0,0,0,0-1.613L41.427,5.931a1.141,1.141,0,0,0-1.613,0L38.666,7.079a22.847,22.847,0,0,0-8-3.312V2.141A1.141,1.141,0,0,0,29.522,1H22.677a1.141,1.141,0,0,0-1.141,1.141V3.767a22.847,22.847,0,0,0-8,3.309L12.385,5.931a1.141,1.141,0,0,0-1.613,0L5.931,10.772a1.141,1.141,0,0,0,0,1.613l1.148,1.148a22.856,22.856,0,0,0-3.312,8H2.141A1.141,1.141,0,0,0,1,22.677v6.845a1.141,1.141,0,0,0,1.141,1.141H3.767a22.847,22.847,0,0,0,3.309,8L5.931,39.814a1.141,1.141,0,0,0,0,1.613l4.841,4.841a1.141,1.141,0,0,0,1.613,0l1.148-1.148.017.011V51.2a4.563,4.563,0,0,0,4.563,4.563H39.79A15.972,15.972,0,1,0,59.185,40.168ZM56.9,21.536V26.1H15.831a2.282,2.282,0,0,1,2.282-2.282H34.085a1.141,1.141,0,0,0,1.021-.631l1.966-3.933H54.621A2.282,2.282,0,0,1,56.9,21.536ZM13.55,31.545A13.672,13.672,0,0,1,36.288,16.984a1.133,1.133,0,0,0-.942.619L33.38,21.536H18.113A4.563,4.563,0,0,0,13.55,26.1Zm-.957,11.288-1.014,1.015L8.351,40.62l1.015-1.014a1.141,1.141,0,0,0,.114-1.483,20.514,20.514,0,0,1-3.637-8.785,1.141,1.141,0,0,0-1.125-.957H3.282V23.817H4.718a1.141,1.141,0,0,0,1.127-.962,20.536,20.536,0,0,1,3.637-8.785,1.141,1.141,0,0,0-.114-1.476L8.353,11.58,11.58,8.353l1.014,1.015a1.141,1.141,0,0,0,1.483.114,20.52,20.52,0,0,1,8.785-3.637,1.141,1.141,0,0,0,.955-1.127V3.282h4.563V4.718a1.141,1.141,0,0,0,.962,1.127,20.52,20.52,0,0,1,8.785,3.637,1.141,1.141,0,0,0,1.483-.114l1.014-1.015,3.228,3.228-1.015,1.014a1.141,1.141,0,0,0-.114,1.476,20.438,20.438,0,0,1,1.744,2.9H39.176A15.954,15.954,0,1,0,13.55,35.961v6.567A1.126,1.126,0,0,0,12.592,42.832ZM18.113,53.48A2.282,2.282,0,0,1,15.831,51.2V28.381H56.9V39.848c-.379-.027-.755-.058-1.141-.058a15.982,15.982,0,0,0-15.79,13.69ZM53.48,69.246V67.171H51.2v1.483A13.539,13.539,0,0,1,48.917,67.6V66.03a3.423,3.423,0,0,1,3.423-3.423,3.423,3.423,0,0,0,6.845,0,3.423,3.423,0,0,1,3.423,3.423V67.6a13.54,13.54,0,0,1-2.282,1.054V67.171H58.044v2.075A12.709,12.709,0,0,1,53.48,69.246ZM52.339,56.9V54.621h2.013a5.241,5.241,0,0,0,3.842-1.659l.99.99V56.9a3.423,3.423,0,1,1-6.845,0Zm4.563,5.7a1.141,1.141,0,1,1-2.282,0Zm4.563-7.986a1.141,1.141,0,0,1,0,2.282Zm0-2.282H60.8L58.85,50.392a1.141,1.141,0,0,0-1.825.3,2.966,2.966,0,0,1-2.673,1.651H50.058V48.917a2.282,2.282,0,0,1,2.282-2.282h5.7a1.141,1.141,0,0,1,1.141,1.141,1.141,1.141,0,0,0,1.141,1.141,1.141,1.141,0,0,1,1.141,1.141ZM50.058,54.621V56.9a1.141,1.141,0,1,1,0-2.282ZM64.88,65.945a5.7,5.7,0,0,0-4.668-5.516,5.636,5.636,0,0,0,.771-1.245h.484a3.41,3.41,0,0,0,2.282-5.955V50.058a3.423,3.423,0,0,0-2.429-3.276,3.423,3.423,0,0,0-3.275-2.429h-5.7a4.563,4.563,0,0,0-4.563,4.563v4.313a3.41,3.41,0,0,0,2.282,5.955h.484a5.636,5.636,0,0,0,.772,1.245,5.7,5.7,0,0,0-4.67,5.516,13.69,13.69,0,1,1,18.236,0Z" transform="translate(880 1683)" fill="#011936"/>
  </g>
</svg>
