<?xml version="1.0" encoding="utf-8"?>
<!-- Generator: Adobe Illustrator 27.7.0, SVG Export Plug-In . SVG Version: 6.00 Build 0)  -->
<svg version="1.1" id="Layer_1" xmlns="http://www.w3.org/2000/svg" xmlns:xlink="http://www.w3.org/1999/xlink" x="0px" y="0px"
	 viewBox="0 0 1249 278" style="enable-background:new 0 0 1249 278;" xml:space="preserve">
<style type="text/css">
	.st0{fill:#9DB784;}
	.st1{fill:#494949;}
</style>
<path class="st0" d="M1371.58-125.35c0.79-0.08,1.58-0.13,2.3,0.29C1373.07-124.82,1372.33-125.07,1371.58-125.35z"/>
<g>
	<g>
		<path class="st1" d="M257.37,135.22c0-24.68,18.89-42.51,44.28-42.51c13.46,0,25.03,4.84,32.71,13.81l-9.92,9.33
			c-6.02-6.49-13.46-9.68-22.08-9.68c-17.12,0-29.52,12.04-29.52,29.05s12.4,29.05,29.52,29.05c8.62,0,16.06-3.19,22.08-9.8
			l9.92,9.45c-7.67,8.97-19.25,13.81-32.82,13.81C276.26,177.72,257.37,159.89,257.37,135.22z"/>
		<path class="st1" d="M397.52,139.58v36.96h-13.93v-7.67c-3.54,5.43-10.39,8.5-19.84,8.5c-14.4,0-23.5-7.91-23.5-18.89
			c0-10.51,7.08-18.77,26.21-18.77h16.29v-0.94c0-8.62-5.2-13.7-15.7-13.7c-7.08,0-14.4,2.36-19.13,6.26l-5.79-10.74
			c6.73-5.2,16.53-7.79,26.68-7.79C387.01,112.78,397.52,121.4,397.52,139.58z M382.76,156.82v-7.32h-15.23
			c-10.04,0-12.75,3.78-12.75,8.38c0,5.31,4.49,8.74,12.04,8.74C374.02,166.62,380.28,163.32,382.76,156.82z"/>
		<path class="st1" d="M450.53,112.78v14.05c-1.3-0.24-2.36-0.35-3.42-0.35c-11.22,0-18.3,6.61-18.3,19.48v30.58h-14.76v-63.05
			h14.05v9.21C432.35,116.09,440.02,112.78,450.53,112.78z"/>
		<path class="st1" d="M460.68,88.93h14.76v87.61h-14.76V88.93z"/>
		<path class="st1" d="M487.25,145.01c0-18.89,14.17-32.23,33.53-32.23c19.6,0,33.65,13.34,33.65,32.23s-14.05,32.35-33.65,32.35
			C501.41,177.37,487.25,163.91,487.25,145.01z M539.55,145.01c0-12.04-8.03-19.72-18.77-19.72c-10.63,0-18.66,7.67-18.66,19.72
			s8.03,19.72,18.66,19.72C531.52,164.73,539.55,157.06,539.55,145.01z"/>
		<path class="st1" d="M559.03,170.28l5.67-11.22c5.55,3.66,14.05,6.26,21.96,6.26c9.33,0,13.22-2.6,13.22-6.97
			c0-12.04-38.96-0.71-38.96-25.86c0-11.93,10.74-19.72,27.75-19.72c8.38,0,17.95,2.01,23.61,5.43l-5.67,11.22
			c-6.02-3.54-12.04-4.72-18.06-4.72c-8.97,0-13.22,2.95-13.22,7.08c0,12.75,38.96,1.42,38.96,26.09
			c0,11.81-10.86,19.48-28.57,19.48C575.21,177.37,564.7,174.3,559.03,170.28z"/>
		<path class="st1" d="M643.68,165.8l8.74-10.51c4.49,6.14,9.92,9.45,16.41,9.45c8.5,0,12.87-5.08,12.87-15.23v-42.74h-29.4V93.89
			h44.75v54.79c0,19.48-9.68,29.05-27.87,29.05C658.8,177.72,649.35,173.47,643.68,165.8z"/>
		<path class="st1" d="M708.86,167.57c0-5.9,4.37-9.8,9.68-9.8c5.31,0,9.68,3.9,9.68,9.8c0,5.67-4.37,9.8-9.68,9.8
			C713.22,177.37,708.86,173.23,708.86,167.57z"/>
		<path class="st1" d="M766,135.22c0-24.68,18.89-42.51,44.28-42.51c13.46,0,25.03,4.84,32.71,13.81l-9.92,9.33
			c-6.02-6.49-13.46-9.68-22.08-9.68c-17.12,0-29.52,12.04-29.52,29.05s12.4,29.05,29.52,29.05c8.62,0,16.06-3.19,22.08-9.8
			l9.92,9.45c-7.67,8.97-19.25,13.81-32.82,13.81C784.89,177.72,766,159.89,766,135.22z"/>
		<path class="st1" d="M906.15,139.58v36.96h-13.93v-7.67c-3.54,5.43-10.39,8.5-19.84,8.5c-14.4,0-23.5-7.91-23.5-18.89
			c0-10.51,7.08-18.77,26.21-18.77h16.29v-0.94c0-8.62-5.2-13.7-15.7-13.7c-7.08,0-14.41,2.36-19.13,6.26l-5.79-10.74
			c6.73-5.2,16.53-7.79,26.68-7.79C895.64,112.78,906.15,121.4,906.15,139.58z M891.39,156.82v-7.32h-15.23
			c-10.04,0-12.75,3.78-12.75,8.38c0,5.31,4.49,8.74,12.04,8.74C882.65,166.62,888.91,163.32,891.39,156.82z"/>
		<path class="st1" d="M959.16,112.78v14.05c-1.3-0.24-2.36-0.35-3.42-0.35c-11.22,0-18.3,6.61-18.3,19.48v30.58h-14.76v-63.05
			h14.05v9.21C940.98,116.09,948.65,112.78,959.16,112.78z"/>
		<path class="st1" d="M1030.71,113.49l-27.04,63.05h-15.23l-27.04-63.05h15.35l19.6,46.76l20.19-46.76H1030.71z"/>
		<path class="st1" d="M1088.32,139.58v36.96h-13.93v-7.67c-3.54,5.43-10.39,8.5-19.84,8.5c-14.4,0-23.5-7.91-23.5-18.89
			c0-10.51,7.08-18.77,26.21-18.77h16.29v-0.94c0-8.62-5.2-13.7-15.7-13.7c-7.08,0-14.41,2.36-19.13,6.26l-5.79-10.74
			c6.73-5.2,16.53-7.79,26.68-7.79C1077.82,112.78,1088.32,121.4,1088.32,139.58z M1073.56,156.82v-7.32h-15.23
			c-10.04,0-12.75,3.78-12.75,8.38c0,5.31,4.49,8.74,12.04,8.74C1064.83,166.62,1071.09,163.32,1073.56,156.82z"/>
		<path class="st1" d="M1084.19,196.61l4.25-10.98c2.24,1.65,5.31,2.48,8.62,2.48c5.43,0,8.5-3.31,8.5-10.04v-64.59h14.76v64.23
			c0,13.81-7.91,22.55-21.96,22.55C1092.93,200.27,1087.61,199.21,1084.19,196.61z M1103.43,94.24c0-4.96,4.01-8.86,9.45-8.86
			s9.45,3.66,9.45,8.5c0,5.2-3.9,9.21-9.45,9.21C1107.45,103.1,1103.43,99.2,1103.43,94.24z"/>
		<path class="st1" d="M1190.1,139.58v36.96h-13.93v-7.67c-3.54,5.43-10.39,8.5-19.84,8.5c-14.4,0-23.5-7.91-23.5-18.89
			c0-10.51,7.08-18.77,26.21-18.77h16.29v-0.94c0-8.62-5.2-13.7-15.7-13.7c-7.08,0-14.41,2.36-19.13,6.26l-5.79-10.74
			c6.73-5.2,16.53-7.79,26.68-7.79C1179.59,112.78,1190.1,121.4,1190.1,139.58z M1175.34,156.82v-7.32h-15.23
			c-10.04,0-12.75,3.78-12.75,8.38c0,5.31,4.49,8.74,12.04,8.74C1166.6,166.62,1172.86,163.32,1175.34,156.82z"/>
		<path class="st1" d="M1206.63,88.93h14.76v87.61h-14.76V88.93z"/>
	</g>
	<g>
		<g>
			<g>
				<path class="st0" d="M277.65,110.15c-0.15-0.31,0.01-0.47,0.27-0.59C278.04,109.86,277.99,110.07,277.65,110.15z"/>
			</g>
			<g>
				<path class="st0" d="M276.99,111.71c-0.19-0.37-0.02-0.53,0.33-0.6C277.2,111.31,277.1,111.51,276.99,111.71z"/>
			</g>
			<g>
				<path class="st0" d="M180.06,139.02c-3.16-2.61-6.09-5.05-9.03-7.47c-2.27-1.87-4.58-3.69-6.82-5.58
					c-2.55-2.15-2.98-4.77-1.22-7c1.89-2.39,5-2.76,7.59-0.69c3.75,3.01,7.39,6.16,11.08,9.24c2.73,2.28,5.38,4.68,8.23,6.81
					c4.25,3.17,3.23,6.69,0.11,9.28c-5.68,4.72-11.36,9.45-17.04,14.18c-0.89,0.74-1.72,1.56-2.65,2.24
					c-2.65,1.95-5.86,1.34-7.65-1.4c-1.36-2.08-0.77-4.61,1.6-6.59c3.15-2.62,6.34-5.19,9.5-7.79
					C175.75,142.61,177.73,140.96,180.06,139.02z"/>
			</g>
			<g>
				<path class="st0" d="M95.53,139.13c-0.26-1.77,0.65-2.91,1.88-3.93c4.85-4.04,9.68-8.1,14.52-12.16
					c1.84-1.54,3.67-3.1,5.53-4.62c2.39-1.96,5.18-1.78,7.13,0.41c1.69,1.9,1.55,5.09-0.57,6.94c-3.68,3.22-7.51,6.27-11.28,9.39
					c-1.1,0.91-2.21,1.8-3.29,2.71c-1.35,1.14-1.35,1.2,0.06,2.36c4.05,3.33,8.13,6.64,12.18,9.97c0.96,0.79,1.85,1.68,2.84,2.42
					c2.09,1.56,1.96,5.17,0.28,6.94c-2.01,2.1-4.63,2.36-6.87,0.49c-6.76-5.64-13.5-11.3-20.24-16.96
					C96.45,142.05,95.27,140.94,95.53,139.13z"/>
			</g>
			<g>
				<path class="st0" d="M158.59,121.33c-0.01,1.89-0.59,3-1.21,4.08c-4.19,7.45-8.4,14.88-12.61,22.32
					c-1.84,3.25-3.69,6.51-5.51,9.77c-0.48,0.86-0.99,1.69-1.74,2.35c-1.99,1.76-4.46,1.96-6.35,0.51
					c-2.03-1.56-2.63-4.12-1.34-6.45c2.31-4.21,4.71-8.38,7.08-12.56c3.77-6.66,7.54-13.33,11.31-19.98
					c0.48-0.85,0.95-1.73,1.57-2.47c1.37-1.64,3.43-2.17,5.29-1.48C157.44,118.28,158.61,119.79,158.59,121.33z"/>
			</g>
		</g>
		<path class="st0" d="M236.93,202.22l-35.98-34.79c-1.05-1.02-2.5-1.5-3.96-1.32c-1.45,0.18-2.74,1.02-3.5,2.26
			c-1.84,3-7,10.31-12.72,15.25c-0.34,0.29-0.68,0.58-1.03,0.86c-0.19,0.15-0.37,0.3-0.56,0.44c-0.31,0.24-0.64,0.47-0.96,0.7
			c-0.72,0.51-1.45,0.98-2.17,1.37c-0.46,0.25-0.84,0.57-1.18,0.93c-8.99,5.73-19.54,9.03-30.62,8.95
			c-31.46,0.69-58.42-25.63-58.48-57.97c-0.06-31.13,26.01-57.64,57.61-57.84c5.77-0.04,11.42,0.8,16.79,2.4
			c0.13,0.04,0.27,0.08,0.4,0.13c0.02,0.01,0.04,0.02,0.07,0.02c21.84,7.29,31.47,23.75,31.57,23.92c0.72,1.27,1.97,2.15,3.4,2.39
			c0.27,0.04,0.53,0.07,0.8,0.07c1.17,0,2.31-0.43,3.2-1.21l29.55-26.21l0.38-0.15c0.54-0.53,1.07-1.07,1.6-1.61l4.95-4.39
			c0.75-0.66,1.24-1.51,1.47-2.41c1.18-1.99,0.78-3.85-1.27-5.91c-7.11-7.14-14.32-14.17-21.34-21.39c-2.3-2.37-5.56-2.33-7.69-0.03
			c-3.51,3.79-7.27,7.35-10.94,10.99c-1.64,1.63-1.66,1.64-3.54,0.5c-8.21-4.97-16.95-8.7-26.28-10.97
			c-1.58-0.38-1.96-1.01-1.94-2.5c0.07-5.34,0.05-10.69,0.02-16.04c-0.02-4-1.66-5.62-5.71-5.64c-4.99-0.02-9.99-0.01-14.98-0.01
			c-5.17,0-10.35-0.03-15.52,0.01c-3.47,0.03-5.25,1.77-5.44,5.22c-0.04,0.71-0.01,1.43-0.01,2.14c0,4.81-0.04,9.62,0.02,14.43
			c0.02,1.4-0.43,2.2-1.87,2.37c-0.35,0.04-0.68,0.22-1.02,0.3c-8.89,2.22-17.16,5.9-25.02,10.56c-2,1.19-2,1.21-3.71-0.49
			c-3.66-3.65-7.34-7.28-10.97-10.96c-1.28-1.3-2.73-1.95-4.56-1.71c-1.33,0.17-2.25,0.98-3.16,1.86
			c-7.01,6.85-14.04,13.69-21.05,20.54c-0.32,0.31-0.65,0.62-0.94,0.95c-2.16,2.42-2.2,4.73-0.11,7.16c0.41,0.47,0.87,0.9,1.31,1.34
			c3.28,3.28,6.57,6.54,9.84,9.83c1.76,1.77,1.77,1.84,0.58,3.85c-4.78,8.09-8.56,16.6-10.78,25.77c-0.48,1.97-0.54,1.98-2.75,1.99
			c-5.08,0.01-10.17-0.01-15.25,0.01c-4.13,0.02-5.82,1.69-5.83,5.88c-0.03,10.07-0.03,20.13,0,30.2c0.01,3.84,1.74,5.53,5.59,5.55
			c5.17,0.03,10.35,0,15.52,0.01c2.62,0,2.65,0,3.33,2.59c2.34,8.93,5.85,17.37,10.66,25.25c1.55,2.54,1.29,2.11-0.53,3.93
			c-3.6,3.59-7.29,7.08-10.85,10.7c-2.59,2.64-2.55,5.14,0,7.7c7.05,7.07,14.11,14.13,21.2,21.16c2.82,2.8,5.23,2.76,8.1-0.08
			c3.56-3.5,7.07-7.05,10.61-10.57c1.72-1.71,1.75-1.72,3.81-0.5c8.01,4.76,16.51,8.38,25.53,10.75c2.3,0.61,2.31,0.63,2.32,3.03
			c0.01,5.26-0.05,10.51,0.03,15.77c0.06,3.69,1.82,5.4,5.47,5.41c10.26,0.03,20.51,0.03,30.77,0c3.82-0.01,5.38-1.58,5.4-5.34
			c0.03-5.17,0.01-10.33,0.01-15.5c0-2.73,0-2.79,2.57-3.44c9.14-2.32,17.7-6.01,25.74-10.9c1.39-0.84,2.16-0.59,3.19,0.46
			c3.48,3.58,7.02,7.09,10.58,10.59c3.22,3.17,5.59,3.21,8.75,0.08c6.91-6.83,13.78-13.7,20.64-20.59c0.86-0.86,1.45-1.67,1.8-2.46
			C238.8,206.05,238.5,203.74,236.93,202.22z M225.06,207.66c-4.23,4.21-8.48,8.41-12.66,12.67c-0.97,0.99-1.59,1.06-2.59,0.03
			c-3.35-3.45-6.78-6.83-10.2-10.22c-2.95-2.93-5.07-3.13-8.49-0.79c-9.47,6.49-19.92,10.62-31.09,13.01
			c-3.91,0.83-5.08,2.19-5.09,6.21c-0.02,4.9,0.01,9.8-0.01,14.7c-0.01,2.02-0.05,2.06-2.11,2.07c-5.97,0.02-11.95,0.02-17.92,0
			c-1.99-0.01-2.03-0.06-2.05-2.15c-0.03-4.81,0.01-9.62-0.01-14.43c-0.02-4.23-1.36-5.64-5.52-6.42
			c-11.1-2.07-21.31-6.29-30.55-12.82c-0.93-0.66-1.79-1.47-3.02-1.63c-2.11-0.28-3.82,0.42-5.3,1.92
			c-3.38,3.43-6.79,6.82-10.21,10.21c-1.56,1.55-1.59,1.55-3.12,0.04c-4.3-4.27-8.59-8.56-12.87-12.84c-0.31-0.31-0.57-0.66-1-1.15
			c2.32-2.31,4.57-4.57,6.83-6.82c1.7-1.7,3.44-3.37,5.1-5.11c2.38-2.5,2.58-4.62,0.59-7.42c-6.5-9.14-10.66-19.3-13.03-30.19
			c-1.29-5.92-2.73-6.52-7.88-6.38c-4.46,0.12-8.92,0.04-13.38,0.02c-2.11-0.01-2.16-0.05-2.16-2.03
			c-0.03-6.15,0.02-12.29-0.03-18.44c-0.01-1.38,0.46-1.88,1.86-1.86c5.08,0.06,10.17-0.1,15.25,0.07c3.15,0.1,5.35-1.35,5.99-5
			c1.99-11.48,6.35-22.02,13.31-31.42c1.83-2.47,2.05-4.85-0.6-7.65c-3.12-3.3-6.41-6.45-9.62-9.66c-0.44-0.44-0.85-0.92-1.33-1.32
			c-0.82-0.68-0.72-1.23,0.01-1.94c2.55-2.49,5.06-5.02,7.58-7.54c1.89-1.89,3.84-3.72,5.66-5.69c0.99-1.07,1.63-0.94,2.58,0.03
			c3.36,3.44,6.78,6.83,10.2,10.22c3.15,3.13,4.92,3.2,8.62,0.63c8.75-6.07,18.47-9.93,28.78-12.4c0.86-0.21,1.74-0.36,2.61-0.56
			c3.34-0.77,4.62-2.32,4.66-5.83c0.04-4.54,0.01-9.09,0.01-13.63c0-0.62,0.03-1.25,0-1.87c-0.06-1.11,0.41-1.63,1.56-1.6
			c1.6,0.04,3.21,0.01,4.81,0.01c4.55,0,9.1-0.02,13.64,0.01c2.02,0.01,2.06,0.05,2.07,2.12c0.03,4.9,0,9.8,0.01,14.7
			c0.01,4.14,1.2,5.39,5.35,6.19c10.8,2.08,20.84,6,29.89,12.35c4.79,3.36,6.11,3.19,10.3-0.99c3.09-3.09,6.17-6.18,9.27-9.25
			c1.32-1.3,1.37-1.3,2.72,0.04c4.18,4.14,8.34,8.3,12.49,12.47c1.4,1.4,1.54,1.6,0.47,2.72l-28.05,24.87
			c-8.53-10.98-20.3-19.2-33.61-23.38c-0.12-0.04-0.25-0.08-0.37-0.12c-0.16-0.05-0.33-0.1-0.49-0.15
			c-2.38-0.76-4.87-1.44-7.51-1.99c-0.56-0.12-1.12-0.11-1.65-0.04c-3.3-0.5-6.66-0.78-10.07-0.77c-37.37,0.1-67.4,31.23-67.6,66.93
			c-0.22,37.94,31.37,68.91,67.87,68.16c21.81,0.35,42.15-10.66,54.71-27.89l15.23,14.73c0.18,0.22,0.35,0.44,0.56,0.66
			c3.48,3.57,7.05,7.06,10.58,10.6C226.5,206.07,226.88,205.85,225.06,207.66z"/>
	</g>
</g>
</svg>
