<svg xmlns="http://www.w3.org/2000/svg" xmlns:xlink="http://www.w3.org/1999/xlink" width="149.809" height="151.809" viewBox="0 0 149.809 151.809">
  <defs>
    <filter id="Rectangle_1" x="0" y="0" width="149.809" height="151.809" filterUnits="userSpaceOnUse">
      <feOffset dy="3" input="SourceAlpha"/>
      <feGaussianBlur stdDeviation="3" result="blur"/>
      <feFlood flood-opacity="0.161"/>
      <feComposite operator="in" in2="blur"/>
      <feComposite in="SourceGraphic"/>
    </filter>
  </defs>
  <g id="Group_175" data-name="Group 175" transform="translate(-90 -1414)">
    <g transform="matrix(1, 0, 0, 1, 90, 1414)" filter="url(#Rectangle_1)">
      <rect id="Rectangle_1-2" data-name="Rectangle 1" width="131.809" height="133.809" rx="65.904" transform="translate(9 6)" fill="#d2e4e3"/>
    </g>
    <path id="_831b25eab61ba4180427b1dee9cdb346" data-name="831b25eab61ba4180427b1dee9cdb346" d="M72,34.638a4.393,4.393,0,0,0-4.388-4.388H54.675V4.713A3.745,3.745,0,0,0,50.963,1H5.625A3.77,3.77,0,0,0,1.8,4.713V38.688A3.745,3.745,0,0,0,5.512,42.4H20.925v7.2h-6.3a1.125,1.125,0,1,0,0,2.25H29.137v5.4a4.393,4.393,0,0,0,4.387,4.388h11.7v7.425A3.986,3.986,0,0,0,49.162,73H59.85a3.986,3.986,0,0,0,3.938-3.937V61.638h3.825A4.393,4.393,0,0,0,72,57.25ZM4.05,38.688V4.713A1.516,1.516,0,0,1,5.625,3.25h45.45a1.489,1.489,0,0,1,1.462,1.463v25.65H49.275V7.188A1.063,1.063,0,0,0,48.15,6.063H8.437A1.063,1.063,0,0,0,7.313,7.188V36.212a1.063,1.063,0,0,0,1.125,1.125h20.7V40.15H5.625A1.516,1.516,0,0,1,4.05,38.688Zm42.975-8.325h-13.5a4.393,4.393,0,0,0-4.388,4.387h0v.337H9.562V8.313H47.025ZM23.287,49.6V42.4h5.85v7.2Zm38.25.337H47.475V49.6a1.73,1.73,0,0,1,1.688-1.687H59.85A1.73,1.73,0,0,1,61.538,49.6Zm-14.062,2.25H61.538V66.025H47.475ZM63.788,49.6a3.986,3.986,0,0,0-3.938-3.937H49.163A3.986,3.986,0,0,0,45.225,49.6v5.175H35.663V37.225h29.7v17.55H63.675V49.6ZM59.85,70.75H49.163a1.73,1.73,0,0,1-1.687-1.687v-.787H61.538v.787A1.73,1.73,0,0,1,59.85,70.75Zm9.9-13.5a2.136,2.136,0,0,1-2.137,2.138H63.787V57.025H66.6A1.063,1.063,0,0,0,67.725,55.9V36.1A1.063,1.063,0,0,0,66.6,34.975H34.538A1.063,1.063,0,0,0,33.413,36.1V55.9a1.063,1.063,0,0,0,1.125,1.125H45.225v2.362h-11.7a2.136,2.136,0,0,1-2.138-2.138V34.638A2.136,2.136,0,0,1,33.525,32.5H67.613a2.136,2.136,0,0,1,2.137,2.138Z" transform="translate(128.2 1450)" fill="#011936"/>
  </g>
</svg>
