<svg xmlns="http://www.w3.org/2000/svg" xmlns:xlink="http://www.w3.org/1999/xlink" width="149.809" height="151.809" viewBox="0 0 149.809 151.809">
  <defs>
    <filter id="Rectangle_1" x="0" y="0" width="149.809" height="151.809" filterUnits="userSpaceOnUse">
      <feOffset dy="3" input="SourceAlpha"/>
      <feGaussianBlur stdDeviation="3" result="blur"/>
      <feFlood flood-opacity="0.161"/>
      <feComposite operator="in" in2="blur"/>
      <feComposite in="SourceGraphic"/>
    </filter>
  </defs>
  <g id="Group_172" data-name="Group 172" transform="translate(-466 -1183)">
    <g transform="matrix(1, 0, 0, 1, 466, 1183)" filter="url(#Rectangle_1)">
      <rect id="Rectangle_1-2" data-name="Rectangle 1" width="131.809" height="133.809" rx="65.904" transform="translate(9 6)" fill="#d2e4e3"/>
    </g>
    <path id="_16" data-name="16" d="M35.415,59.95a1.452,1.452,0,0,1,1.523-1.368h3.046a1.376,1.376,0,1,1,0,2.735H36.938A1.452,1.452,0,0,1,35.415,59.95ZM52.168,77.729H24.753a1.376,1.376,0,1,0,0,2.735H52.168a1.376,1.376,0,1,0,0-2.735Zm9.138,0H58.26a1.376,1.376,0,1,0,0,2.735h3.046a1.376,1.376,0,1,0,0-2.735ZM39.984,50.377a1.452,1.452,0,0,1-1.523,1.368H15.615a1.674,1.674,0,0,1-.518-.1h-.289l-.228-.164a1.467,1.467,0,0,1-.289-.383v-.1a1.264,1.264,0,0,1-.2-.629V32.6a1.344,1.344,0,0,1,.726-1.161,1.675,1.675,0,0,1,1.482-.056l12.184,5.47a1.361,1.361,0,0,1,.838,1.217v5.47h4.569a1.376,1.376,0,1,1,0,2.735H28.165L22.073,49.01H38.461A1.452,1.452,0,0,1,39.984,50.377ZM26.276,38.917,23.23,37.549v7.877l3.046-1.368Zm-9.138,9.245,3.046-1.368V36.182l-3.046-1.368ZM81.106,12.5l-1.523,4.1a1.523,1.523,0,0,1-1.523.957,2.1,2.1,0,0,1-.487-.068,1.485,1.485,0,0,1-.882-.689,1.241,1.241,0,0,1-.078-1.047l.487-1.3-3.61,1.3V33.966a1.249,1.249,0,0,1-.122.52,1.01,1.01,0,0,1-.137.205,1.379,1.379,0,0,1-.183.232,1.339,1.339,0,0,1-.487.3l-3.655,1.368a.3.3,0,0,1,.015.109V61.318a4.355,4.355,0,0,1-4.569,4.1H46.076v6.838h3.046a1.376,1.376,0,1,1,0,2.735H27.8a1.376,1.376,0,1,1,0-2.735h3.046V65.421H12.569A4.355,4.355,0,0,1,8,61.318V29.864a4.355,4.355,0,0,1,4.569-4.1H33.892V15.805l-5.209-1.559.564,1.5a1.344,1.344,0,0,1-.96,1.737,1.572,1.572,0,0,1-1.934-.862l-1.523-4.1a1.067,1.067,0,0,1-.076-.438.381.381,0,0,1,0-.137,1.132,1.132,0,0,1,.107-.369V11.5a1.371,1.371,0,0,1,.259-.342h.107a1.4,1.4,0,0,1,.381-.191L30.175,9.6a1.572,1.572,0,0,1,1.934.862,1.344,1.344,0,0,1-.96,1.737l-.244.068,4.508,1.19L53.2,8.119a1.688,1.688,0,0,1,.975,0l17.789,5.251L75.2,12.208l-.67-.123a1.344,1.344,0,0,1-.96-1.737A1.572,1.572,0,0,1,75.5,9.487l4.569,1.368a1.572,1.572,0,0,1,.472.246.385.385,0,0,1,.107.109,1.261,1.261,0,0,1,.228.26l.091.137a1.4,1.4,0,0,1,.107.356v.109A1.551,1.551,0,0,1,81.106,12.5ZM70.445,33.009V16.721l-15.23,4.554V38.753Zm-33.507,0,15.23,5.744V21.275l-15.23-4.554Zm3.29-18.189,13.464,4.1,13.464-4.1L53.691,10.786Zm2.8,50.6H33.892v6.838H43.03Zm22.846-8.205H11.046v4.1a1.452,1.452,0,0,0,1.523,1.368H64.352a1.452,1.452,0,0,0,1.523-1.368Zm0-19.488L55.214,41.721v3.993l.442-.41a1.655,1.655,0,0,1,2.163,0,1.276,1.276,0,0,1,0,1.942l-3.046,2.735a1.648,1.648,0,0,1-2.163,0l-3.046-2.735a1.276,1.276,0,0,1,0-1.942,1.655,1.655,0,0,1,2.163,0l.442.41V41.721l-17.332-6.5a1.339,1.339,0,0,1-.487-.3,1.066,1.066,0,0,1-.152-.205.681.681,0,0,1-.168-.232,1.254,1.254,0,0,1-.137-.52V28.5H12.569a1.452,1.452,0,0,0-1.523,1.368V54.48H65.875Z" transform="translate(496 1211.953)" fill="#011936"/>
  </g>
</svg>
