<svg xmlns="http://www.w3.org/2000/svg" xmlns:xlink="http://www.w3.org/1999/xlink" width="149.809" height="151.809" viewBox="0 0 149.809 151.809">
  <defs>
    <filter id="Rectangle_1" x="0" y="0" width="149.809" height="151.809" filterUnits="userSpaceOnUse">
      <feOffset dy="3" input="SourceAlpha"/>
      <feGaussianBlur stdDeviation="3" result="blur"/>
      <feFlood flood-opacity="0.161"/>
      <feComposite operator="in" in2="blur"/>
      <feComposite in="SourceGraphic"/>
    </filter>
  </defs>
  <g id="Group_177" data-name="Group 177" transform="translate(-90 -1655)">
    <g transform="matrix(1, 0, 0, 1, 90, 1655)" filter="url(#Rectangle_1)">
      <rect id="Rectangle_1-2" data-name="Rectangle 1" width="131.809" height="133.809" rx="65.904" transform="translate(9 6)" fill="#d2e4e3"/>
    </g>
    <g id="Layer_2" data-name="Layer 2" transform="translate(135 1696.015)">
      <path id="Path_434" data-name="Path 434" d="M27.651,44.747a2.106,2.106,0,1,0-2.978,2.978L27.4,50.447H15.634a2.106,2.106,0,0,1-2.106-2.106V18.563a8.423,8.423,0,1,0-4.211,0V48.341a6.317,6.317,0,0,0,6.317,6.317H27.4l-2.723,2.723a2.106,2.106,0,1,0,2.978,2.978l6.317-6.317a2.106,2.106,0,0,0,0-2.977ZM7.212,10.439a4.211,4.211,0,1,1,4.211,4.211A4.211,4.211,0,0,1,7.212,10.439Zm44.219,33.99V14.651a6.317,6.317,0,0,0-6.317-6.317H33.351l2.723-2.723A2.106,2.106,0,1,0,33.1,2.633L26.78,8.951a2.106,2.106,0,0,0,0,2.977L33.1,18.245a2.106,2.106,0,1,0,2.978-2.978l-2.723-2.722H45.114a2.106,2.106,0,0,1,2.106,2.106V44.429a8.423,8.423,0,1,0,4.211,0ZM49.325,56.764a4.211,4.211,0,1,1,4.211-4.211A4.211,4.211,0,0,1,49.325,56.764Z" transform="translate(0 0)" fill="#011936"/>
    </g>
  </g>
</svg>
