<svg xmlns="http://www.w3.org/2000/svg" xmlns:xlink="http://www.w3.org/1999/xlink" width="149.809" height="151.809" viewBox="0 0 149.809 151.809">
  <defs>
    <filter id="Rectangle_1" x="0" y="0" width="149.809" height="151.809" filterUnits="userSpaceOnUse">
      <feOffset dy="3" input="SourceAlpha"/>
      <feGaussianBlur stdDeviation="3" result="blur"/>
      <feFlood flood-opacity="0.161"/>
      <feComposite operator="in" in2="blur"/>
      <feComposite in="SourceGraphic"/>
    </filter>
  </defs>
  <g id="Group_173" data-name="Group 173" transform="translate(-841 -1418)">
    <g transform="matrix(1, 0, 0, 1, 841, 1418)" filter="url(#Rectangle_1)">
      <rect id="Rectangle_1-2" data-name="Rectangle 1" width="131.809" height="133.809" rx="65.904" transform="translate(9 6)" fill="#d2e4e3"/>
    </g>
    <g id="_8ffc78fcd146ecf0cc89a18bcdfa75bd" data-name="8ffc78fcd146ecf0cc89a18bcdfa75bd" transform="translate(866.295 1441.208)">
      <path id="Path_425" data-name="Path 425" d="M49.68,95.74A45.974,45.974,0,1,0,3.705,49.766,46.026,46.026,0,0,0,49.68,95.74Zm0-89.948A43.974,43.974,0,1,1,5.705,49.766,44.024,44.024,0,0,1,49.68,5.792Z" fill="#011936"/>
      <path id="Path_426" data-name="Path 426" d="M22.922,35.479c.365.043.41.047.776.079.26.022.689.06,1.539.137C26.93,40.33,37.956,70.53,38.588,72.277a3.4,3.4,0,0,0,3.176,2.255A3.2,3.2,0,0,0,44.8,72.155c.544-1.671,4.485-13.119,6.68-19.485,3.342,9.154,6.806,18.649,7.15,19.607A3.4,3.4,0,0,0,61.8,74.532a3.2,3.2,0,0,0,3.032-2.377c.35-1.074,1.451-4.216,2.846-8.193,1.784-5.089,4.228-12.059,6.429-18.5,2.142-6.458,1.9-12.878-.605-16.354a5.744,5.744,0,0,0-6.794-2.184,5.486,5.486,0,0,0-3.232,3.5c-.53,1.639-.607,4.354,2.038,7.988,4.015,5.51,1.692,11.912,1.647,12.04l-2.93,9.718-8.242-24.52q.955-.068,1.906-.172A2.1,2.1,0,0,0,59.671,33.1a1.969,1.969,0,0,0-2.126-1.776l-.412.019c-2.506.168-4.765.253-6.724.253-1.363,0-3.624-.044-6.651-.257l-.151-.01q-.111-.006-.223-.006a2.008,2.008,0,0,0-2.132,1.585,2.305,2.305,0,0,0,.379,1.79,1.917,1.917,0,0,0,1.333.775c.365.043.409.047.778.079.261.022.69.06,1.535.137L49.1,46.154l-4.817,14.3-8.328-24.8c.789-.062,1.671-.136,1.907-.172a2.1,2.1,0,0,0,1.771-2.377,2.007,2.007,0,0,0-2.323-1.772l-.216.016c-2.51.168-4.771.253-6.723.253-1.34,0-3.575-.044-6.615-.255l-.186-.013q-.114-.007-.229-.007a2,2,0,0,0-2.125,1.584,2.3,2.3,0,0,0,.377,1.791,1.91,1.91,0,0,0,1.333.776Zm.416-2.15.275.015c3.1.214,5.383.26,6.754.26,1.995,0,4.3-.087,6.856-.258l.286-.015a1.077,1.077,0,0,1,.139.008.062.062,0,0,0,0,.032c.008.06.015.112-.088.137-.243.037-1.924.17-3.039.253a1,1,0,0,0-.874,1.316L43.33,63.913a1,1,0,0,0,1.9,0L51.1,46.463a1,1,0,0,0-.008-.662L46.939,34.416a1,1,0,0,0-.847-.652q-1.089-.1-2.178-.2c-.34-.03-.381-.033-.672-.045a1.292,1.292,0,0,0-.087-.164.632.632,0,0,1,.228-.027l.234.012c3.085.217,5.4.262,6.8.262,1.994,0,4.3-.087,6.848-.258l.278-.014a1.014,1.014,0,0,1,.13.007l.014.112a.2.2,0,0,1-.089.057c-.242.037-1.923.171-3.039.254a1,1,0,0,0-.874,1.316l9.651,28.711a1.029,1.029,0,0,0,.964.681,1,1,0,0,0,.941-.711L69.055,51.1c.114-.3,2.741-7.458-1.923-13.86-1.7-2.337-2.308-4.479-1.752-6.194a3.564,3.564,0,0,1,1.948-2.217,3.746,3.746,0,0,1,4.553,1.453c1.759,2.436,2.542,7.88.332,14.545-2.195,6.423-4.638,13.388-6.421,18.474-1.453,4.145-2.5,7.139-2.86,8.236-.211.651-.6,1-1.13,1a1.416,1.416,0,0,1-1.3-.934c-.378-1.05-4.511-12.379-8.119-22.26a1,1,0,0,0-.939-.657h-.009a1,1,0,0,0-.937.674c-4.69,13.6-7.18,20.861-7.609,22.181-.212.652-.6,1-1.131,1a1.412,1.412,0,0,1-1.295-.935C39.782,69.708,26.9,34.419,26.9,34.419a1,1,0,0,0-.847-.653c-1.289-.12-1.862-.169-2.183-.2-.337-.029-.379-.033-.667-.043a1.246,1.246,0,0,0-.087-.167.488.488,0,0,1,.224-.03Z" fill="#011936"/>
    </g>
  </g>
</svg>
